<svg version="1" xmlns="http://www.w3.org/2000/svg" width="1333.333" height="1333.333" viewBox="0 0 1000.000000 1000.000000"><path d="M477.8 101.1c-53.2 2.7-105.2 16.3-154.3 40.4-88.5 43.4-157.9 118.4-195 211-30.1 75-36.2 161.5-17 241 12.6 52.2 37.7 105.8 68.3 145.8 2.4 3.2 4.2 6 4 6.3-.3.2 1.8 2.8 4.6 5.7 2.8 2.9 10.4 11.1 16.8 18.2 48.2 53.6 114.5 94.7 185.3 114.8 49.9 14.2 100.2 18.6 151.5 13.2 141.5-14.9 265.5-105.1 323.1-235 35.7-80.5 43.9-170.8 23.4-256-13.5-56.2-39.9-110.3-75.2-154.5-11.4-14.2-34.8-39.8-38.9-42.4l-2.7-1.8.6 4.8c1.6 12.2 2.8 38.9 2.2 48.4-2 32.8-7.9 53.6-20.4 71.8-21.4 31.2-79.7 94-158.6 171.1-18.7 18.3-35.6 34.9-37.6 37l-3.6 3.8 1.8 9.4c3.7 19.4 5.2 34.3 5.2 52.4 0 34-5.7 49.2-25.9 68.6-13.7 13-29.9 22.1-50.7 28.2-10.6 3.2-11.8 3.4-12.6 1.9-.5-1-6.8-16.3-14.2-34.1l-13.3-32.3-4.5.6c-2.5.4-7.1 1-10.1 1.3-5.2.6-7.1 1.8-47.5 30.6-23.1 16.5-44 31.6-46.5 33.4-2.4 1.9-4.6 3-4.8 2.5-.1-.5 6.7-25.8 15.3-56.2l15.6-55.4-1.6-6.1c-.8-3.4-1.5-7.1-1.5-8.3 0-1.3-.6-2.5-1.2-2.7-.7-.2-17.5-1.1-37.3-2-19.7-.9-36-1.7-36.2-1.9-.1-.1-.6-6.7-.9-14.7-1.1-24 2.3-40.7 12.2-60.6 9.4-19 20.9-29.3 43.2-38.7 15.7-6.6 40.5-13 65.9-17.1 3.1-.5 4.4-1.2 4.9-2.8.8-2.6 28.8-64 42-92.2 14.2-30.3 48-98 58.6-117.4 17.7-32.3 29.4-50.5 39.7-61.4 6.3-6.7 22.3-18.3 32.2-23.3 9.9-5 27.8-11.9 42.7-16.4l15.3-4.6-14.6-4.8c-36-11.8-67.5-17.6-106-19.6-20.5-1.1-20-1.1-41.7.1z"/><path d="M729 131.7c-68 6.9-121.5 21.4-150.4 40.7-4.5 3-10.5 7.8-13.5 10.8-18.3 18.2-56.4 89.7-112.3 210.8-5 10.7-23.4 52.5-40.9 92.8-22.7 52.5-32 74.8-32.4 78.6-2.9 22.8 13.2 46.1 36 52.2 10.7 2.9 24 1.3 34.5-4.1 5-2.6 47.8-42.8 117.5-110.5 86.9-84.3 151.5-153.5 170.6-182.8 10.2-15.6 14.7-33.1 15.6-60.7 1-33.3-4.9-76.2-17-123-1.4-5.2-1.7-5.5-7.7-4.8zm-71.3 99.7c7.3 3.3 15.4 11.3 18.4 18.1 11.6 26.3-8.2 55.1-36.6 53.3-26.4-1.7-42.9-29.8-31.3-53.7 4.2-8.6 13.4-16.6 22.8-19.8 1.9-.6 7.3-1.1 12-1 6.9.2 9.7.8 14.7 3.1zm-63.8 97.5c8.9 4.6 15 16.2 13.8 26.4-1.2 10.1-9.7 19.9-19.5 22.7-12.8 3.5-25.7-2.8-31.3-15.5-2.5-5.5-2.9-14-.9-19 5.8-15.3 23.3-22 37.9-14.6zM384.5 468c-41.3 9-59.1 18.5-69.3 37-7.3 13.1-13 35-12 46.6l.3 3.9 28 1.2c15.4.6 28.3.8 28.7.5.5-.6 35.8-82.1 38.9-90 1.1-2.7 1.7-2.8-14.6.8zM500.5 594c-19.8 18.1-36.4 33.5-36.9 34.3-1 1.6 20 53.7 21.7 53.7 2.1 0 19.7-8.9 25.8-13.1 8.1-5.5 18.5-16 22.6-23 5.1-8.5 6.5-15.4 7-33.9.5-15.3-.8-32.7-3.5-47.1l-.7-3.7-36 32.8zM376.5 620.2c-1.1 3.2-10.4 37.2-10.2 37.4.2.1 31.4-21.9 32.4-22.9.1-.2-2.6-2-6.1-4-3.5-2.1-8.5-5.6-11-7.8-3.2-2.8-4.7-3.7-5.1-2.7z"/></svg>